<svg width="46" height="28" viewBox="0 0 46 28" fill="none" xmlns="http://www.w3.org/2000/svg">
<path d="M27.4 4.90088L22.908 9.40088L18.408 4.90088L22.908 0.400879L27.4 4.90088Z" fill="#61DDE1"/>
<path d="M22.911 9.799L18 4.9L22.907 0L27.807 4.9L22.911 9.799ZM18.799 4.899L22.911 9.004L27.011 4.899L22.911 0.799L18.799 4.899Z" fill="#606060"/>
<path d="M18.4 14.299L13.5 9.39902L18.4 4.49902L23.3 9.39902L18.4 14.299ZM14.3 9.39902L18.4 13.504L22.506 9.39902L18.4 5.29902L14.3 9.39902Z" fill="#606060"/>
<path d="M13.9 9.40186L9.40002 13.9019L13.9 18.4019L18.4 13.9019L13.9 9.40186Z" fill="#FFB94D"/>
<path d="M13.9 18.8L9 13.9L13.9 9L18.8 13.9L13.9 18.8ZM9.79999 13.9L13.9 18L18.006 13.9L13.9 9.8L9.79999 13.9Z" fill="#606060"/>
<path d="M9.40002 13.9019L4.90002 18.4019L9.40002 22.9019L13.9 18.4019L9.40002 13.9019Z" fill="white"/>
<path d="M9.40002 23.301L4.5 18.401L9.40002 13.501L14.3 18.401L9.40002 23.301ZM5.29999 18.401L9.40002 22.501L13.5 18.401L9.40002 14.296L5.29999 18.401Z" fill="#606060"/>
<path d="M27.4 4.90186L22.9 9.40186L27.4 13.9019L31.9 9.40186L27.4 4.90186Z" fill="white"/>
<path d="M27.4 14.299L22.5 9.39902L27.4 4.49902L32.3 9.39902L27.4 14.299ZM23.294 9.39902L27.394 13.504L31.494 9.39902L27.394 5.29902L23.294 9.39902Z" fill="#606060"/>
<path d="M22.9 9.40283L18.4 13.9028L22.9 18.4028L27.4 13.9028L22.9 9.40283Z" fill="#FFB94D"/>
<path d="M22.911 18.8L18 13.902L22.907 9.00195L27.795 13.902L22.911 18.8ZM18.799 13.9L22.911 18L27.005 13.9L22.911 9.79995L18.799 13.9Z" fill="#606060"/>
<path d="M18.4 13.9019L13.9 18.4019L18.4 22.9019L22.9 18.4019L18.4 13.9019Z" fill="white"/>
<path d="M18.4 23.301L13.5 18.401L18.4 13.501L23.3 18.401L18.4 23.301ZM14.3 18.401L18.4 22.501L22.506 18.401L18.4 14.298L14.3 18.401Z" fill="#606060"/>
<path d="M31.9 9.40283L27.4 13.9028L31.9 18.4028L36.4 13.9028L31.9 9.40283Z" fill="#FFB94D"/>
<path d="M31.9 18.8L27 13.9L31.9 9L36.8 13.9L31.9 18.8ZM27.8 13.9L31.9 18L36 13.9L31.9 9.8L27.8 13.9Z" fill="#606060"/>
<path d="M27.4 13.9019L22.9 18.4019L27.4 22.9019L31.9 18.4019L27.4 13.9019Z" fill="white"/>
<path d="M27.4 23.301L22.5 18.401L27.4 13.501L32.3 18.401L27.4 23.301ZM23.294 18.401L27.394 22.501L31.494 18.401L27.394 14.296L23.294 18.401Z" fill="#606060"/>
<path d="M36.4 13.9019L31.9 18.4019L36.4 22.9019L40.9 18.4019L36.4 13.9019Z" fill="white"/>
<path d="M36.4 23.301L31.5 18.401L36.4 13.501L41.3 18.401L36.4 23.301ZM32.3 18.401L36.4 22.501L40.5 18.401L36.4 14.296L32.3 18.401Z" fill="#606060"/>
<path d="M45.405 22.9038L40.905 27.4038L36.405 22.9038L40.899 18.4038L45.405 22.9038Z" fill="#61DDE1"/>
<path d="M40.9 27.801L36 22.901L40.9 18.001L45.8 22.901L40.9 27.801ZM36.8 22.901L40.9 27.001L45 22.901L40.9 18.796L36.8 22.901Z" fill="#606060"/>
<path d="M31.9 18.4019L27.4 22.9019L31.9 27.4019L36.4 22.9019L31.9 18.4019Z" fill="#61DDE1"/>
<path d="M31.9 27.801L27 22.901L31.9 18.001L36.8 22.901L31.9 27.801ZM27.8 22.901L31.9 27.001L36 22.901L31.9 18.796L27.8 22.901Z" fill="#606060"/>
<path d="M22.9 18.4019L18.4 22.9019L22.9 27.4019L27.4 22.9019L22.9 18.4019Z" fill="#61DDE1"/>
<path d="M22.911 27.8009L18 22.9039L22.907 18.0039L27.807 22.9039L22.911 27.8009ZM18.799 22.9009L22.911 27.0009L27.011 22.9009L22.911 18.7959L18.799 22.9009Z" fill="#606060"/>
<path d="M13.9 18.4019L9.40002 22.9019L13.9 27.4019L18.4 22.9019L13.9 18.4019Z" fill="#61DDE1"/>
<path d="M13.9 27.801L9 22.901L13.9 18.001L18.8 22.901L13.9 27.801ZM9.79999 22.901L13.9 27.001L18.006 22.901L13.9 18.799L9.79999 22.901Z" fill="#606060"/>
<path d="M4.90002 18.4019L0.400024 22.9019L4.90002 27.4019L9.40002 22.9019L4.90002 18.4019Z" fill="#61DDE1"/>
<path d="M4.90002 27.801L0 22.901L4.90002 18.001L9.79999 22.901L4.90002 27.801ZM0.791992 22.901L4.89203 27.001L8.992 22.901L4.89203 18.796L0.791992 22.901Z" fill="#606060"/>
</svg>
