<svg width="21" height="21" viewBox="0 0 21 21" fill="none" xmlns="http://www.w3.org/2000/svg">
<path d="M10.6981 16.8781L15.4231 19.8781C16.0325 20.2625 16.7825 19.6906 16.6044 18.9875L15.2356 13.6063C15.1986 13.4571 15.2045 13.3005 15.2526 13.1546C15.3007 13.0086 15.389 12.8792 15.5075 12.7813L19.745 9.2469C20.2981 8.78752 20.0169 7.8594 19.295 7.81252L13.7637 7.45627C13.6128 7.44749 13.4677 7.39494 13.3462 7.30503C13.2246 7.21513 13.1319 7.09177 13.0794 6.95002L11.0169 1.75627C10.9623 1.60618 10.8628 1.47653 10.732 1.38491C10.6012 1.29329 10.4453 1.24414 10.2856 1.24414C10.1259 1.24414 9.97005 1.29329 9.83923 1.38491C9.70841 1.47653 9.60896 1.60618 9.55436 1.75627L7.49186 6.95002C7.43929 7.09177 7.34658 7.21513 7.22504 7.30503C7.1035 7.39494 6.95841 7.44749 6.80749 7.45627L1.27623 7.81252C0.55436 7.8594 0.27311 8.78752 0.826235 9.2469L5.06374 12.7813C5.18217 12.8792 5.27053 13.0086 5.31864 13.1546C5.36674 13.3005 5.37262 13.4571 5.33561 13.6063L4.06999 18.5938C3.85436 19.4375 4.75436 20.1219 5.47624 19.6625L9.87311 16.8781C9.99641 16.7997 10.1395 16.7581 10.2856 16.7581C10.4317 16.7581 10.5748 16.7997 10.6981 16.8781V16.8781Z" stroke="#A1AFAF" stroke-width="0.952806" stroke-linecap="round" stroke-linejoin="round"/>
</svg>
